<?xml version="1.0" encoding="utf-8"?>
<!-- Generator: Adobe Illustrator 16.0.4, SVG Export Plug-In . SVG Version: 6.00 Build 0)  -->
<!DOCTYPE svg PUBLIC "-//W3C//DTD SVG 1.1//EN" "http://www.w3.org/Graphics/SVG/1.1/DTD/svg11.dtd">
<svg version="1.1" id="Layer_1" xmlns="http://www.w3.org/2000/svg" xmlns:xlink="http://www.w3.org/1999/xlink" x="0px" y="0px"
	 width="457.432px" height="120.587px" viewBox="0 0 457.432 120.587" enable-background="new 0 0 457.432 120.587"
	 xml:space="preserve">
<g>
	<path fill="#ED1D2B" d="M0.059,80.067c-1.296,28.201,18.801,40.52,46.193,40.52c41.006,0,44.248-25.123,44.248-33.064
		c0-18.963-13.614-26.096-29.984-30.471l-28.202-6.969c-9.4-2.269-17.505-6.808-17.505-17.666c0-17.181,13.939-23.016,29.013-23.016
		c16.37,0,30.957,8.914,31.605,26.581h11.021C86.609,12.317,66.512,0,43.659,0C11.081,0,3.787,21.232,3.787,32.578
		c0,17.99,12.48,24.474,26.095,27.878l25.771,6.32c10.697,2.594,23.826,7.779,23.826,20.908c0,16.857-18.478,23.502-30.633,23.502
		c-21.071,0-38.251-7.293-37.765-31.119H0.059L0.059,80.067z"/>
	<path fill-rule="evenodd" clip-rule="evenodd" fill="#ED1D2B" d="M256.592,79.095c0.811-23.501-9.887-47.003-36.792-47.003
		c-26.581,0-37.764,22.205-37.764,44.247c0,23.826,11.184,44.248,37.764,44.248c21.069,0,32.093-11.021,36.468-29.984h-10.211
		c-3.24,12.643-11.346,21.395-26.257,21.395c-19.611,0-27.391-17.992-27.553-32.902H256.592L256.592,79.095z M192.247,70.505
		c1.621-15.236,10.859-29.822,27.553-29.822c16.532,0,26.095,14.424,26.581,29.822H192.247L192.247,70.505z"/>
	<path fill-rule="evenodd" clip-rule="evenodd" fill="#ED1D2B" d="M404.732,79.095c0.811-23.501-9.887-47.003-36.793-47.003
		c-26.582,0-37.764,22.205-37.764,44.247c0,23.826,11.182,44.248,37.764,44.248c21.072,0,32.092-11.021,36.469-29.984h-10.211
		c-3.24,12.643-11.346,21.395-26.258,21.395c-19.611,0-27.391-17.992-27.553-32.902H404.732L404.732,79.095z M340.387,70.505
		c1.619-15.236,10.859-29.822,27.553-29.822c16.533,0,26.096,14.424,26.582,29.822H340.387L340.387,70.505z"/>
	<path fill="#ED1D2B" d="M416.104,118.296h10.211v-44.57c0-17.342,12.641-30.956,31.117-29.984V33.53
		c-15.072-0.648-26.418,7.294-31.604,20.747h-0.324v-19.61h-9.4V118.296L416.104,118.296z"/>
	<path fill="#ED1D2B" d="M310.758,2.617h-10.211v31.906h-14.586v8.59h14.586v57.214c-0.162,14.264,4.539,18.801,18.154,18.801
		c3.078,0,5.998-0.324,9.074-0.324v-8.75c-2.916,0.322-5.834,0.484-8.75,0.484c-7.295-0.484-8.268-4.377-8.268-11.021V43.113h17.018
		v-8.59h-17.018V2.617L310.758,2.617z"/>
	<polygon fill="#ED1D2B" points="267.977,2.617 278.188,2.617 278.188,118.296 267.977,118.296 267.977,2.617 	"/>
	<polygon fill="#ED1D2B" points="112.279,2.617 112.279,52.039 138.435,29.234 171.191,58.876 171.191,118.296 160.88,118.296 
		160.881,62.483 137.847,41.725 112.279,63.966 112.279,118.294 102.068,118.294 102.068,2.617 112.279,2.617 	"/>
</g>

</svg>
